<svg width="311" height="72" viewBox="0 0 311 72" fill="none" xmlns="http://www.w3.org/2000/svg">
<g filter="url(#filter0_d_144_15)">
<path d="M12 32C12 18.7452 22.7452 8 36 8H275C288.255 8 299 18.7452 299 32C299 45.2548 288.255 56 275 56H36C22.7452 56 12 45.2548 12 32Z" fill="#758957" shape-rendering="crispEdges"/>
<path d="M97.5827 40.24C96.6361 40.24 95.7694 40.0667 94.9827 39.72C94.1961 39.36 93.5294 38.8733 92.9827 38.26C92.4361 37.6467 92.0427 36.96 91.8027 36.2L93.5027 35.5C93.8627 36.46 94.3961 37.2 95.1027 37.72C95.8227 38.2267 96.6627 38.48 97.6227 38.48C98.2094 38.48 98.7227 38.3867 99.1627 38.2C99.6027 38.0133 99.9427 37.7533 100.183 37.42C100.436 37.0733 100.563 36.6733 100.563 36.22C100.563 35.5933 100.383 35.1 100.023 34.74C99.6761 34.3667 99.1627 34.0867 98.4827 33.9L95.7427 33.06C94.6627 32.7267 93.8361 32.2 93.2627 31.48C92.6894 30.76 92.4027 29.9333 92.4027 29C92.4027 28.1867 92.5961 27.4733 92.9827 26.86C93.3827 26.2333 93.9294 25.7467 94.6227 25.4C95.3294 25.04 96.1294 24.86 97.0227 24.86C97.9161 24.86 98.7227 25.02 99.4427 25.34C100.176 25.66 100.796 26.0933 101.303 26.64C101.809 27.1733 102.183 27.7867 102.423 28.48L100.743 29.18C100.423 28.34 99.9427 27.7067 99.3027 27.28C98.6627 26.84 97.9094 26.62 97.0427 26.62C96.5094 26.62 96.0361 26.7133 95.6227 26.9C95.2227 27.0733 94.9094 27.3333 94.6827 27.68C94.4694 28.0133 94.3627 28.4133 94.3627 28.88C94.3627 29.4267 94.5361 29.9133 94.8827 30.34C95.2294 30.7667 95.7561 31.0933 96.4627 31.32L98.9627 32.06C100.136 32.42 101.023 32.9333 101.623 33.6C102.223 34.2667 102.523 35.0933 102.523 36.08C102.523 36.8933 102.309 37.6133 101.883 38.24C101.469 38.8667 100.889 39.36 100.143 39.72C99.4094 40.0667 98.5561 40.24 97.5827 40.24ZM109.552 40.12C108.499 40.12 107.686 39.82 107.112 39.22C106.552 38.62 106.272 37.7733 106.272 36.68V31H104.312V29.22H104.712C105.192 29.22 105.572 29.0733 105.852 28.78C106.132 28.4867 106.272 28.1 106.272 27.62V26.74H108.132V29.22H110.552V31H108.132V36.62C108.132 36.98 108.186 37.2933 108.292 37.56C108.412 37.8267 108.606 38.04 108.872 38.2C109.139 38.3467 109.492 38.42 109.932 38.42C110.026 38.42 110.139 38.4133 110.272 38.4C110.419 38.3867 110.552 38.3733 110.672 38.36V40C110.499 40.04 110.306 40.0667 110.092 40.08C109.879 40.1067 109.699 40.12 109.552 40.12ZM116.125 40.24C115.419 40.24 114.792 40.1133 114.245 39.86C113.712 39.5933 113.292 39.2333 112.985 38.78C112.679 38.3133 112.525 37.78 112.525 37.18C112.525 36.6067 112.645 36.0933 112.885 35.64C113.139 35.1733 113.525 34.78 114.045 34.46C114.579 34.14 115.245 33.9133 116.045 33.78L120.045 33.12V34.68L116.465 35.28C115.772 35.4 115.265 35.62 114.945 35.94C114.639 36.26 114.485 36.6533 114.485 37.12C114.485 37.56 114.659 37.9267 115.005 38.22C115.365 38.5133 115.812 38.66 116.345 38.66C117.025 38.66 117.612 38.52 118.105 38.24C118.612 37.9467 119.005 37.5533 119.285 37.06C119.579 36.5667 119.725 36.02 119.725 35.42V32.68C119.725 32.0933 119.505 31.62 119.065 31.26C118.639 30.8867 118.072 30.7 117.365 30.7C116.752 30.7 116.205 30.86 115.725 31.18C115.259 31.4867 114.912 31.9 114.685 32.42L113.065 31.58C113.265 31.0867 113.585 30.6467 114.025 30.26C114.465 29.86 114.979 29.5467 115.565 29.32C116.152 29.0933 116.765 28.98 117.405 28.98C118.232 28.98 118.959 29.14 119.585 29.46C120.212 29.7667 120.699 30.2 121.045 30.76C121.405 31.3067 121.585 31.9467 121.585 32.68V40H119.765V37.96L120.105 38.08C119.879 38.5067 119.572 38.88 119.185 39.2C118.799 39.52 118.345 39.7733 117.825 39.96C117.305 40.1467 116.739 40.24 116.125 40.24ZM124.469 40V29.22H126.289V31.2L126.089 30.92C126.343 30.3067 126.729 29.8533 127.249 29.56C127.769 29.2533 128.403 29.1 129.149 29.1H129.809V30.86H128.869C128.109 30.86 127.496 31.1 127.029 31.58C126.563 32.0467 126.329 32.7133 126.329 33.58V40H124.469ZM135.939 40.12C134.886 40.12 134.072 39.82 133.499 39.22C132.939 38.62 132.659 37.7733 132.659 36.68V31H130.699V29.22H131.099C131.579 29.22 131.959 29.0733 132.239 28.78C132.519 28.4867 132.659 28.1 132.659 27.62V26.74H134.519V29.22H136.939V31H134.519V36.62C134.519 36.98 134.572 37.2933 134.679 37.56C134.799 37.8267 134.992 38.04 135.259 38.2C135.526 38.3467 135.879 38.42 136.319 38.42C136.412 38.42 136.526 38.4133 136.659 38.4C136.806 38.3867 136.939 38.3733 137.059 38.36V40C136.886 40.04 136.692 40.0667 136.479 40.08C136.266 40.1067 136.086 40.12 135.939 40.12ZM142.946 44V29.22H144.766V31.54L144.526 31.08C144.926 30.44 145.473 29.9333 146.166 29.56C146.859 29.1733 147.653 28.98 148.546 28.98C149.559 28.98 150.466 29.2267 151.266 29.72C152.079 30.2133 152.719 30.8867 153.186 31.74C153.653 32.58 153.886 33.54 153.886 34.62C153.886 35.6733 153.653 36.6267 153.186 37.48C152.719 38.3333 152.079 39.0067 151.266 39.5C150.466 39.9933 149.553 40.24 148.526 40.24C147.659 40.24 146.866 40.0467 146.146 39.66C145.439 39.2733 144.893 38.7267 144.506 38.02L144.806 37.7V44H142.946ZM148.386 38.44C149.066 38.44 149.673 38.2733 150.206 37.94C150.739 37.6067 151.153 37.1533 151.446 36.58C151.753 35.9933 151.906 35.34 151.906 34.62C151.906 33.8733 151.753 33.22 151.446 32.66C151.153 32.0867 150.739 31.6333 150.206 31.3C149.673 30.9533 149.066 30.78 148.386 30.78C147.706 30.78 147.093 30.9467 146.546 31.28C146.013 31.6133 145.586 32.0733 145.266 32.66C144.959 33.2333 144.806 33.8867 144.806 34.62C144.806 35.34 144.959 35.9933 145.266 36.58C145.586 37.1533 146.013 37.6067 146.546 37.94C147.093 38.2733 147.706 38.44 148.386 38.44ZM156.325 40V24.86H158.185V40H156.325ZM164.231 40.24C163.524 40.24 162.898 40.1133 162.351 39.86C161.818 39.5933 161.398 39.2333 161.091 38.78C160.784 38.3133 160.631 37.78 160.631 37.18C160.631 36.6067 160.751 36.0933 160.991 35.64C161.244 35.1733 161.631 34.78 162.151 34.46C162.684 34.14 163.351 33.9133 164.151 33.78L168.151 33.12V34.68L164.571 35.28C163.878 35.4 163.371 35.62 163.051 35.94C162.744 36.26 162.591 36.6533 162.591 37.12C162.591 37.56 162.764 37.9267 163.111 38.22C163.471 38.5133 163.918 38.66 164.451 38.66C165.131 38.66 165.718 38.52 166.211 38.24C166.718 37.9467 167.111 37.5533 167.391 37.06C167.684 36.5667 167.831 36.02 167.831 35.42V32.68C167.831 32.0933 167.611 31.62 167.171 31.26C166.744 30.8867 166.178 30.7 165.471 30.7C164.858 30.7 164.311 30.86 163.831 31.18C163.364 31.4867 163.018 31.9 162.791 32.42L161.171 31.58C161.371 31.0867 161.691 30.6467 162.131 30.26C162.571 29.86 163.084 29.5467 163.671 29.32C164.258 29.0933 164.871 28.98 165.511 28.98C166.338 28.98 167.064 29.14 167.691 29.46C168.318 29.7667 168.804 30.2 169.151 30.76C169.511 31.3067 169.691 31.9467 169.691 32.68V40H167.871V37.96L168.211 38.08C167.984 38.5067 167.678 38.88 167.291 39.2C166.904 39.52 166.451 39.7733 165.931 39.96C165.411 40.1467 164.844 40.24 164.231 40.24ZM172.575 40V29.22H174.395V31.32L174.095 31.14C174.361 30.46 174.788 29.9333 175.375 29.56C175.975 29.1733 176.675 28.98 177.475 28.98C178.248 28.98 178.935 29.1533 179.535 29.5C180.148 29.8467 180.628 30.3267 180.975 30.94C181.335 31.5533 181.515 32.2467 181.515 33.02V40H179.635V33.62C179.635 33.02 179.528 32.5133 179.315 32.1C179.101 31.6867 178.795 31.3667 178.395 31.14C178.008 30.9 177.561 30.78 177.055 30.78C176.548 30.78 176.095 30.9 175.695 31.14C175.308 31.3667 175.001 31.6933 174.775 32.12C174.548 32.5333 174.435 33.0333 174.435 33.62V40H172.575ZM188.556 40.12C187.503 40.12 186.69 39.82 186.116 39.22C185.556 38.62 185.276 37.7733 185.276 36.68V31H183.316V29.22H183.716C184.196 29.22 184.576 29.0733 184.856 28.78C185.136 28.4867 185.276 28.1 185.276 27.62V26.74H187.136V29.22H189.556V31H187.136V36.62C187.136 36.98 187.19 37.2933 187.296 37.56C187.416 37.8267 187.61 38.04 187.876 38.2C188.143 38.3467 188.496 38.42 188.936 38.42C189.03 38.42 189.143 38.4133 189.276 38.4C189.423 38.3867 189.556 38.3733 189.676 38.36V40C189.503 40.04 189.31 40.0667 189.096 40.08C188.883 40.1067 188.703 40.12 188.556 40.12ZM192.106 40V29.22H193.966V40H192.106ZM192.106 27.5V25.1H193.966V27.5H192.106ZM196.852 40V29.22H198.672V31.32L198.372 31.14C198.639 30.46 199.065 29.9333 199.652 29.56C200.252 29.1733 200.952 28.98 201.752 28.98C202.525 28.98 203.212 29.1533 203.812 29.5C204.425 29.8467 204.905 30.3267 205.252 30.94C205.612 31.5533 205.792 32.2467 205.792 33.02V40H203.912V33.62C203.912 33.02 203.805 32.5133 203.592 32.1C203.379 31.6867 203.072 31.3667 202.672 31.14C202.285 30.9 201.839 30.78 201.332 30.78C200.825 30.78 200.372 30.9 199.972 31.14C199.585 31.3667 199.279 31.6933 199.052 32.12C198.825 32.5333 198.712 33.0333 198.712 33.62V40H196.852ZM213.594 44.4C212.834 44.4 212.127 44.28 211.474 44.04C210.834 43.8 210.28 43.4667 209.814 43.04C209.36 42.6267 209.014 42.14 208.774 41.58L210.514 40.78C210.7 41.2867 211.054 41.7133 211.574 42.06C212.107 42.42 212.774 42.6 213.574 42.6C214.187 42.6 214.74 42.48 215.234 42.24C215.74 42.0133 216.14 41.6667 216.434 41.2C216.727 40.7467 216.874 40.1933 216.874 39.54V37.12L217.214 37.48C216.84 38.2133 216.3 38.7733 215.594 39.16C214.9 39.5467 214.134 39.74 213.294 39.74C212.28 39.74 211.374 39.5067 210.574 39.04C209.774 38.56 209.147 37.9133 208.694 37.1C208.24 36.2733 208.014 35.36 208.014 34.36C208.014 33.3467 208.24 32.4333 208.694 31.62C209.147 30.8067 209.767 30.1667 210.554 29.7C211.354 29.22 212.26 28.98 213.274 28.98C214.114 28.98 214.874 29.1733 215.554 29.56C216.247 29.9333 216.8 30.4533 217.214 31.12L216.934 31.62V29.22H218.754V39.54C218.754 40.4733 218.534 41.3067 218.094 42.04C217.654 42.7733 217.04 43.3467 216.254 43.76C215.48 44.1867 214.594 44.4 213.594 44.4ZM213.454 37.94C214.094 37.94 214.667 37.78 215.174 37.46C215.694 37.14 216.107 36.7133 216.414 36.18C216.72 35.6333 216.874 35.0267 216.874 34.36C216.874 33.7067 216.72 33.1067 216.414 32.56C216.107 32.0133 215.694 31.58 215.174 31.26C214.667 30.94 214.094 30.78 213.454 30.78C212.8 30.78 212.207 30.94 211.674 31.26C211.14 31.58 210.72 32.0133 210.414 32.56C210.12 33.0933 209.974 33.6933 209.974 34.36C209.974 35.0267 210.12 35.6333 210.414 36.18C210.72 36.7133 211.134 37.14 211.654 37.46C212.187 37.78 212.787 37.94 213.454 37.94Z" fill="white"/>
</g>
<defs>
<filter id="filter0_d_144_15" x="0" y="0" width="311" height="72" filterUnits="userSpaceOnUse" color-interpolation-filters="sRGB">
<feFlood flood-opacity="0" result="BackgroundImageFix"/>
<feColorMatrix in="SourceAlpha" type="matrix" values="0 0 0 0 0 0 0 0 0 0 0 0 0 0 0 0 0 0 127 0" result="hardAlpha"/>
<feOffset dy="4"/>
<feGaussianBlur stdDeviation="6"/>
<feComposite in2="hardAlpha" operator="out"/>
<feColorMatrix type="matrix" values="0 0 0 0 0.403922 0 0 0 0 0.376471 0 0 0 0 0.0901961 0 0 0 0.3 0"/>
<feBlend mode="normal" in2="BackgroundImageFix" result="effect1_dropShadow_144_15"/>
<feBlend mode="normal" in="SourceGraphic" in2="effect1_dropShadow_144_15" result="shape"/>
</filter>
</defs>
</svg>
